<svg width="743" height="1895" viewBox="0 0 743 1895" fill="none" xmlns="http://www.w3.org/2000/svg">
<path d="M163.76 168.964L163.76 500.869L24.4329 500.869L24.4329 4.99997L738.567 5L738.567 482.436L600.263 482.436L600.263 168.964L600.263 163.964L595.263 163.964L459.232 163.964L454.232 163.964L454.232 168.964L454.232 465.028L324.11 465.028L324.11 168.964L324.11 163.964L319.11 163.964L168.76 163.964L163.76 163.964L163.76 168.964ZM390.735 1126.01L390.711 1125.99L390.688 1125.97C356 1099.26 331.705 1065.59 317.709 1024.9C304.283 984.564 297.517 937.679 297.517 884.166L297.517 797.124L297.517 792.124L292.517 792.124L24.4329 792.124L24.4329 627.016L738.567 627.016L738.567 888.262C738.567 973.64 720.966 1041.14 686.271 1091.24L686.25 1091.28L686.229 1091.31C652.622 1141.45 597.827 1166.92 520.599 1166.92C468.331 1166.92 425.159 1153.18 390.735 1126.01ZM607.422 797.124L607.422 792.124L602.422 792.124L431.617 792.124L426.617 792.124L426.617 797.124L426.617 870.854C426.617 913.267 433.993 945.968 449.507 968.183C465.249 990.725 488.897 1001.81 519.576 1001.81C548.624 1001.81 570.998 990.923 585.857 968.883C600.479 947.195 607.422 915.292 607.422 873.926L607.422 797.124ZM654 1338.27L654.001 1338.27C723.28 1412.35 758 1504.96 758 1616.47C758 1668.41 748.57 1718.66 729.701 1767.23L729.686 1767.27L729.672 1767.31C712.146 1814.75 687.825 1852.57 656.819 1880.95L545.594 1769.59C565.872 1753.72 581.229 1732.99 591.677 1707.52C603.544 1680.94 609.468 1652.62 609.468 1622.61C609.468 1560.54 587.812 1509.02 544.473 1468.43L544.471 1468.43C501.833 1428.54 447.714 1408.71 382.523 1408.71C316.023 1408.71 261.223 1428.16 218.561 1467.37L218.546 1467.39L218.531 1467.4C176.516 1506.66 155.578 1557.52 155.578 1619.54C155.578 1686.38 179.199 1738.05 226.7 1773.84L119.329 1888.06C43.1971 1820.49 4.99986 1729.12 4.99987 1613.39C4.99987 1501.91 40.0465 1410.01 109.962 1337.31C180.521 1264.65 271.229 1228.24 382.523 1228.24C495.189 1228.24 585.512 1265 654 1338.27Z" stroke="#F5F5FB" stroke-width="10"/>
</svg>
