<svg width="215" height="243" viewBox="0 0 215 243" fill="none" xmlns="http://www.w3.org/2000/svg">
<g opacity="0.2">
<path d="M167.8 177.216C162.7 177.216 157.6 176.345 152.7 174.506C133.7 167.536 122.5 148.369 126 129.008C126.2 127.846 127.3 127.072 128.5 127.266C129.7 127.459 130.5 128.621 130.3 129.782C127.1 147.11 137.2 164.244 154.2 170.537C163.7 174.022 174 173.731 183.2 169.762C192.5 165.696 199.5 158.436 203.1 149.337C206.7 140.14 206.4 130.17 202.3 121.264C198.1 112.261 190.6 105.485 181.1 102C164.7 95.9981 146.3 101.516 136.3 115.456C135.6 116.424 134.2 116.714 133.2 116.036C132.2 115.359 131.9 114.004 132.6 113.036C143.7 97.4502 164.2 91.2548 182.6 98.031C193.2 101.903 201.6 109.551 206.2 119.618C210.8 129.589 211.2 140.721 207.1 150.982C203.1 161.244 195.2 169.375 184.9 173.828C179.6 175.958 173.7 177.216 167.8 177.216Z" fill="white"/>
<path d="M160.6 156.016C160 156.016 159.4 155.725 159 155.338L141.8 137.623C141 136.752 141 135.397 141.9 134.622C142.8 133.848 144.2 133.848 145 134.719L160.5 150.692L190.5 117.004C191.3 116.133 192.7 116.036 193.6 116.811C194.5 117.585 194.6 118.94 193.8 119.812L162.2 155.338C161.8 155.725 161.3 156.016 160.6 156.016Z" fill="white"/>
<path d="M123.8 199.868C123.5 199.868 123.2 199.771 123 199.675C122.4 199.384 107.8 193.576 92.9 181.96C73 166.374 62.5 147.788 62.5 128.234V78.3801C62.5 72.2815 67.9 67.3445 74.6 67.3445C74.7 67.3445 74.7 67.3445 74.8 67.3445C75 67.3445 100.2 68.8934 122.6 54.0825C123.4 53.5985 124.3 53.5985 125.1 54.0825C147.5 68.9902 172.6 67.4413 172.9 67.3445C173 67.3445 173 67.3445 173.1 67.3445C179.8 67.3445 185.2 72.2815 185.2 78.3801V88.1572C185.2 89.3189 184.2 90.2869 183 90.2869C181.8 90.2869 180.8 89.3189 180.8 88.1572V78.3801C180.8 74.7016 177.4 71.7007 173.2 71.6039C171.2 71.7007 146.8 72.9591 123.9 58.3418C100.9 73.0559 76.5 71.7975 74.5 71.7007C70.3 71.7007 66.9 74.7016 66.9 78.4769V128.331C66.9 169.569 116.7 192.414 123.8 195.512C127.7 193.866 144.5 186.219 158.8 172.86C159.7 172.086 161.1 172.086 161.9 172.957C162.7 173.828 162.7 175.183 161.8 175.958C145 191.64 125.4 199.481 124.6 199.771C124.3 199.868 124.1 199.868 123.8 199.868Z" fill="white"/>
<path d="M123.8 183.702C123.5 183.702 123.1 183.605 122.8 183.509C109.2 176.732 77.6001 157.662 77.6001 128.331V97.0635C77.6001 95.9019 78.6001 94.9338 79.8001 94.9338C81.0001 94.9338 82.0001 95.9019 82.0001 97.0635V128.331C82.0001 154.661 110.4 172.376 123.8 179.249C129 176.539 136.4 172.279 143.5 166.568C144.4 165.794 145.8 165.89 146.6 166.858C147.4 167.73 147.2 169.085 146.3 169.859C138.4 176.248 130.2 180.798 124.8 183.605C124.5 183.605 124.1 183.702 123.8 183.702Z" fill="white"/>
<path d="M167.8 99.386C166.6 99.386 165.6 98.418 165.6 97.2563V86.2209C156.3 85.7369 140.2 83.6072 123.8 75.3791C114.5 80.0256 104.4 83.3168 93.7001 84.9625C92.5001 85.1561 91.4001 84.3817 91.2001 83.22C91.0001 82.0584 91.8001 80.9936 93.0001 80.8C103.7 79.0575 113.7 75.7663 122.8 71.1198C123.5 70.7325 124.2 70.7325 124.9 71.1198C142.2 80.1224 159.3 81.8648 167.9 82.0584C169.1 82.0584 170 83.0264 170 84.188V97.2563C170 98.418 169 99.386 167.8 99.386Z" fill="white"/>
<path d="M123.8 91.5457C122.6 91.5457 121.6 90.5776 121.6 89.4159V72.9591C121.6 71.7974 122.6 70.8293 123.8 70.8293C125 70.8293 126 71.7974 126 72.9591V89.4159C126 90.6744 125 91.5457 123.8 91.5457Z" fill="white"/>
<path d="M123.8 183.702C122.6 183.702 121.6 182.734 121.6 181.572V165.793C121.6 164.632 122.6 163.664 123.8 163.664C125 163.664 126 164.632 126 165.793V181.572C126 182.734 125 183.702 123.8 183.702Z" fill="white"/>
<path d="M123.8 4.03486C57.6 4.03486 3.7 56.696 3.7 121.458C3.7 186.219 57.6 238.88 123.8 238.88C190 238.88 243.9 186.219 243.9 121.458C243.8 56.696 190 4.03486 123.8 4.03486ZM123.8 242.462C55.5 242.462 0 188.155 0 121.458C0 54.7599 55.5 0.453125 123.8 0.453125C192 0.453125 247.5 54.7599 247.5 121.458C247.5 188.155 192 242.462 123.8 242.462Z" fill="white"/>
</g>
</svg>
