<svg width="248" height="250" viewBox="0 0 248 250" fill="none" xmlns="http://www.w3.org/2000/svg">
<g opacity="0.2" clip-path="url(#clip0)">
<path d="M123.8 246.3C57.6 246.3 3.7 191.9 3.7 125C3.7 58.1 57.6 3.7 123.8 3.7C190 3.7 243.8 58.1 243.8 125C243.8 191.9 190 246.3 123.8 246.3ZM123.8 0C55.5 0 0 56.1 0 125C0 193.9 55.5 250 123.8 250C192 250 247.6 193.9 247.6 125C247.5 56.1 192 0 123.8 0Z" fill="white"/>
<path d="M175.4 105.5H143.8V73.8998H175.4V105.5ZM175.4 140.9H143.8V109.3H175.4V140.9ZM108.4 109.2H140V140.8H108.4V109.2ZM140 105.5H108.4V73.8998H140V105.5ZM187.3 73.8998C188.3 73.8998 189.1 73.0998 189.1 72.0998C189.1 71.0998 188.3 70.2998 187.3 70.2998H179V62.0998C179 61.0998 178.2 60.2998 177.2 60.2998C176.2 60.2998 175.4 61.0998 175.4 62.0998V70.2998H143.8V62.0998C143.8 61.0998 143 60.2998 142 60.2998C141 60.2998 140.2 61.0998 140.2 62.0998V70.2998H108.5V62.0998C108.5 61.0998 107.7 60.2998 106.7 60.2998C105.7 60.2998 104.9 61.0998 104.9 62.0998V142.9C104.9 143.9 105.7 144.7 106.7 144.7H142H177.3H187.4C188.4 144.7 189.2 143.9 189.2 142.9C189.2 141.9 188.4 141.1 187.4 141.1H179.1V109.5H187.4C188.4 109.5 189.2 108.7 189.2 107.7C189.2 106.7 188.4 105.9 187.4 105.9H179.1V73.8998H187.3Z" fill="white"/>
<path d="M177.2 164.5C178.2 164.5 179 163.7 179 162.7V159.5H187.3C188.3 159.5 189.1 158.7 189.1 157.7C189.1 156.7 188.3 155.9 187.3 155.9H92.8999V61.5998C92.8999 60.5998 92.0999 59.7998 91.0999 59.7998H60.1999C59.1999 59.7998 58.3999 60.5998 58.3999 61.5998V188.4C58.3999 189.4 59.1999 190.2 60.1999 190.2H187.3C188.3 190.2 189.1 189.4 189.1 188.4C189.1 187.4 188.3 186.6 187.3 186.6H62.0999V63.3998H89.2999V70.7998H85.6999C84.6999 70.7998 83.8999 71.5998 83.8999 72.5998C83.8999 73.5998 84.6999 74.3998 85.6999 74.3998H89.2999V88.3998H80.8999C79.8999 88.3998 79.0999 89.1998 79.0999 90.1998C79.0999 91.1998 79.8999 91.9998 80.8999 91.9998H89.2999V106H85.6999C84.6999 106 83.8999 106.8 83.8999 107.8C83.8999 108.8 84.6999 109.6 85.6999 109.6H89.2999V123.6H85.6999C84.6999 123.6 83.8999 124.4 83.8999 125.4C83.8999 126.4 84.6999 127.2 85.6999 127.2H89.2999V141.2H80.8999C79.8999 141.2 79.0999 142 79.0999 143C79.0999 144 79.8999 144.8 80.8999 144.8H89.2999V157.1C89.2999 158.1 90.0999 158.9 91.0999 158.9H104.7V167.2C104.7 168.2 105.5 169 106.5 169C107.5 169 108.3 168.2 108.3 167.2V158.9H122.3V162.1C122.3 163.1 123.1 163.9 124.1 163.9C125.1 163.9 125.9 163.1 125.9 162.1V158.9H139.9V162.1C139.9 163.1 140.7 163.9 141.7 163.9C142.7 163.9 143.5 163.1 143.5 162.1V158.9H157.5V167.2C157.5 168.2 158.3 169 159.3 169C160.3 169 161.1 168.2 161.1 167.2V158.9H175.1V162.1C175.4 163.6 176.2 164.5 177.2 164.5Z" fill="white"/>
</g>
<defs>
<clipPath id="clip0">
<rect width="247.5" height="250" fill="white"/>
</clipPath>
</defs>
</svg>
