<svg width="248" height="250" viewBox="0 0 248 250" fill="none" xmlns="http://www.w3.org/2000/svg">
<g opacity="0.2" clip-path="url(#clip0)">
<path d="M176.908 86.5386C172.466 86.5386 168.765 82.8403 168.765 78.4025C168.765 73.9646 172.466 70.2664 176.908 70.2664C181.349 70.2664 185.05 73.225 185.05 77.6628C185.05 82.8403 181.349 86.5386 176.908 86.5386ZM79.9412 172.337C79.9412 176.775 76.2402 180.473 71.799 180.473C67.3578 180.473 63.6568 176.775 63.6568 172.337C63.6568 167.899 67.3578 164.201 71.799 164.201C76.2402 164.201 79.9412 167.899 79.9412 172.337ZM189.491 77.6628C189.491 71.006 183.569 65.0889 176.908 65.0889C170.246 65.0889 164.324 71.006 164.324 77.6628C164.324 83.58 168.765 88.7575 174.687 90.2368V140.533C174.687 156.065 163.584 169.379 150.26 169.379C136.937 169.379 125.834 156.805 125.834 140.533V107.988C125.834 90.2368 113.25 75.4439 97.706 75.4439C82.1618 75.4439 69.5784 90.2368 69.5784 107.988V159.763C63.6567 160.503 58.4753 165.681 58.4753 172.337C58.4753 178.994 64.397 184.911 71.0588 184.911C77.7206 184.911 83.6422 178.994 83.6422 172.337C83.6422 166.42 79.201 161.243 73.2794 159.763V107.988C73.2794 92.4557 84.3824 79.1421 97.706 79.1421C111.03 79.1421 122.133 91.7161 122.133 107.988V140.533C122.133 158.284 134.716 173.077 150.26 173.077C165.805 173.077 178.388 158.284 178.388 140.533V90.2368C185.05 89.4971 189.491 84.3196 189.491 77.6628Z" fill="white"/>
<path d="M124.354 3.69823C57.7357 3.69823 3.70101 58.432 3.70101 125C3.70101 192.308 57.7357 246.302 124.354 246.302C190.972 246.302 245.007 191.568 245.007 125C244.266 58.432 190.232 3.69823 124.354 3.69823ZM124.354 250C55.5151 250 0 193.787 0 125C0 56.213 55.5151 0 124.354 0C192.452 0 247.967 56.213 247.967 125C247.967 193.787 192.452 250 124.354 250Z" fill="white"/>
</g>
<defs>
<clipPath id="clip0">
<rect width="247.967" height="250" fill="white"/>
</clipPath>
</defs>
</svg>
