<svg width="230" height="54" viewBox="0 0 230 54" xmlns="http://www.w3.org/2000/svg">
<g class="first-color">
<path d="M72.9399 31.4361H71.0232V17.8911H65.5927V16.1173H78.4237V17.8911H72.9931V31.4361H72.9399Z"/>
<path d="M88.2199 27.5662H80.7662L79.2755 31.49H77.2523L83.6412 16.2249H85.7708L92.1065 31.49H89.9236L88.2199 27.5662ZM81.4583 25.8462H87.6343L84.5463 17.945L81.4583 25.8462Z"/>
<path d="M94.2893 31.4361V16.1173H98.2291C101.211 16.1173 103.393 17.0848 103.393 19.9336C103.393 21.9761 102.275 23.0511 100.306 23.5886V23.6961C102.329 23.8573 103.713 25.2011 103.713 27.3511C103.713 30.6298 101.051 31.4361 97.9097 31.4361H94.2361H94.2893ZM96.3125 17.7836V22.6748H97.6435C99.6666 22.6748 101.53 22.4061 101.53 20.0948C101.53 18.1598 99.8796 17.7836 98.6551 17.7836H96.3125ZM96.3125 24.3411V29.7698H97.9629C99.8796 29.7698 101.85 29.3398 101.85 27.1898C101.85 24.7173 99.7199 24.4486 97.8032 24.4486H96.3125V24.3411Z"/>
<path d="M109.09 25.1473V31.3823H107.067V16.1173H111.38C114.468 16.1173 116.65 17.2461 116.65 20.6323C116.65 23.9111 114.361 25.1473 111.646 25.1473H109.09ZM109.09 17.8911V23.4811H111.486C113.083 23.4811 114.627 22.8361 114.627 20.7398C114.627 18.8048 113.03 17.9986 111.539 17.9986H109.09V17.8911Z"/>
<path d="M129.748 19.2348L121.389 31.4898H119.259V16.1711H121.282V28.4261H121.389L129.748 16.1173H131.877V31.4361H129.854V19.1811L129.748 19.2348Z"/>
<path d="M147.051 31.4362H136.137V34.8761H134.22V29.6624H135.817C137.042 28.3186 137.947 24.2337 138.107 20.6861L138.373 16.0636H147.264V29.6086H149.021V34.8224H147.104L147.051 31.4362ZM140.236 17.8911L139.97 21.5461C139.704 24.5561 139.012 27.9424 138.053 29.7161H145.188V17.9449H140.236V17.8911Z"/>
<path d="M161.745 27.5662H154.292L152.694 31.49H150.671L157.06 16.2249H159.19L165.525 31.49H163.343L161.745 27.5662ZM154.877 25.8462H161.053L157.965 17.945L154.877 25.8462Z"/>
<path d="M65.6991 53.2587V51.2162C66.4977 51.6462 68.2547 52.0225 69.3195 52.0225C72.4607 52.0225 75.0162 49.8187 75.2824 46.54H68.5209V44.7662H75.1759C74.6435 41.8637 72.3542 39.8212 69.213 39.8212C68.1482 39.8212 66.6574 40.1975 65.8056 40.735V38.6387C66.8704 38.2087 68.2547 37.9937 69.3195 37.9937C73.9514 37.9937 77.4121 41.165 77.4121 45.895C77.4121 50.6787 74.0579 53.9037 69.3195 53.9037C68.4144 53.7962 66.7639 53.7425 65.6991 53.2587Z"/>
<path d="M90.8288 46.5399H82.3103V53.5274H80.2871V38.2624H82.3103V44.7124H90.8288V38.2624H92.8519V53.5274H90.8288V46.5399Z"/>
<path d="M96.632 38.2624H105.789V40.0362H98.6551V44.7124H104.831V46.4862H98.6551V51.6999H105.843V53.4737H96.632V38.2624Z"/>
<path d="M110.528 47.3461V53.5811H108.505V38.3161H112.817C115.905 38.3161 118.088 39.4449 118.088 42.8311C118.088 46.1099 115.799 47.3461 113.083 47.3461H110.528ZM110.528 40.0361V45.5186H112.924C114.521 45.5186 116.065 44.8736 116.065 42.7774C116.065 40.8424 114.468 40.0361 112.977 40.0361H110.528Z"/>
<path d="M122.72 53.5274H120.697V38.2624H129.588V40.0362H122.667V53.5274H122.72Z"/>
<path d="M130.653 45.895C130.653 41.4337 133.741 37.9937 138.479 37.9937C143.324 37.9937 146.306 41.4337 146.306 45.895C146.306 50.5175 143.324 53.7962 138.479 53.7962C133.688 53.7962 130.653 50.5175 130.653 45.895ZM132.729 45.895C132.729 49.0125 134.859 52.0225 138.426 52.0225C142.206 52.0225 144.123 49.0125 144.123 45.895C144.123 42.7237 142.206 39.7675 138.426 39.7675C134.752 39.8212 132.729 42.7237 132.729 45.895Z"/>
<path d="M148.755 45.895C148.755 41.2187 152.428 37.9937 157.007 37.9937C158.125 37.9937 159.669 38.155 160.681 38.6387V40.6812C159.722 40.1437 158.231 39.7675 157.06 39.7675C153.44 39.7675 150.725 42.455 150.725 45.895C150.725 49.55 153.6 52.0225 156.954 52.0225C158.019 52.0225 159.829 51.6462 160.627 51.1087V53.1512C159.562 53.5812 157.806 53.7962 156.954 53.7962C152.269 53.7962 148.755 50.7325 148.755 45.895Z"/>
<path d="M170.104 53.5274H168.188V40.0362H162.757V38.2624H175.535V40.0362H170.104V53.5274Z"/>
<path d="M179.847 47.3461V53.5811H177.824V38.3161H182.137C185.225 38.3161 187.407 39.4449 187.407 42.8311C187.407 46.1099 185.118 47.3461 182.403 47.3461H179.847ZM179.847 40.0361V45.5186H182.243C183.84 45.5186 185.384 44.8736 185.384 42.7774C185.384 40.8424 183.787 40.0361 182.296 40.0361H179.847Z"/>
<path d="M189.697 45.895C189.697 41.4337 192.785 37.9937 197.523 37.9937C202.368 37.9937 205.349 41.4337 205.349 45.895C205.349 50.5175 202.368 53.7962 197.523 53.7962C192.838 53.7962 189.697 50.5175 189.697 45.895ZM191.773 45.895C191.773 49.0125 193.903 52.0225 197.47 52.0225C201.25 52.0225 203.167 49.0125 203.167 45.895C203.167 42.7237 201.25 39.7675 197.47 39.7675C193.796 39.8212 191.773 42.7237 191.773 45.895Z"/>
<path d="M218.766 41.326L210.407 53.581H208.278V38.3161H210.301V50.6248H210.407L218.766 38.3161H220.896V53.581H218.766V41.326ZM214.613 37.7786C213.123 37.7786 212.058 36.8648 211.632 35.3598L213.016 34.9298C213.282 35.8973 213.708 36.2736 214.613 36.2736C215.519 36.2736 215.998 35.8436 216.211 34.9298L217.595 35.3598C217.063 36.8648 216.051 37.7786 214.613 37.7786Z"/>
<path d="M66.1783 8.26978H65.5394V1.55103H69.426V2.08853H66.1783V8.26978Z"/>
<path d="M72.5671 5.42103V8.26978H71.9282V1.55103H73.7916C75.1759 1.55103 76.1875 2.08853 76.1875 3.48603C76.1875 4.88353 75.2292 5.42103 74.0046 5.42103H72.5671ZM72.5671 2.03479V4.77603H73.7916C74.5903 4.77603 75.4421 4.50729 75.4421 3.37854C75.4421 2.30354 74.537 1.98104 73.8449 1.98104H72.5139L72.5671 2.03479Z"/>
<path d="M79.7015 8.26999L80.6598 6.38874L78.1042 1.4975H78.7964L80.9792 5.68999L83.1621 1.4975H83.8542L80.3404 8.21625H79.7015V8.26999Z"/>
<path d="M91.2547 2.03479H87.0487V8.26978H86.4098V1.55103H91.9468V8.26978H91.3079V2.03479H91.2547Z"/>
<path d="M99.8797 2.03479H95.6737V8.26978H95.0348V1.55103H100.572V8.26978H99.9329V2.03479H99.8797Z"/>
<path d="M108.079 6.49603H104.458L103.766 8.26978H103.074L105.896 1.55103H106.694L109.516 8.26978H108.824L108.079 6.49603ZM104.618 5.95853H107.866L106.269 1.98104L104.618 5.95853Z"/>
<path d="M116.757 4.72257V8.27006H116.118V1.55131H116.757V4.72257L120.005 1.44382H120.91L117.556 4.61506L121.229 8.16257H120.324L116.757 4.72257Z"/>
<path d="M122.826 4.88393C122.826 2.94893 124.211 1.33643 126.234 1.33643C128.363 1.33643 129.641 2.94893 129.641 4.88393C129.641 6.92643 128.257 8.32393 126.234 8.32393C124.317 8.32393 122.826 6.92643 122.826 4.88393ZM123.519 4.88393C123.519 6.28143 124.583 7.78643 126.34 7.78643C128.097 7.78643 129.162 6.38893 129.162 4.88393C129.162 3.37893 128.097 1.98143 126.34 1.98143C124.477 1.98143 123.519 3.37893 123.519 4.88393Z"/>
<path d="M138.213 2.41103L135.764 5.15228L133.315 2.41103V8.26978H132.676V1.55103H133.315L135.87 4.39979L138.426 1.55103H139.065V8.26978H138.426V2.41103H138.213Z"/>
<path d="M146.891 2.03479H142.685V8.26978H142.046V1.55103H147.583V8.26978H146.944L146.891 2.03479Z"/>
<path d="M154.984 6.49603H151.364L150.671 8.26978H149.979L152.801 1.55103H153.6L156.421 8.26978H155.729L154.984 6.49603ZM151.523 5.95853H154.771L153.174 1.98104L151.523 5.95853Z"/>
<path d="M163.768 4.99104H159.562V8.26978H158.924V1.55103H159.562V4.45354H163.768V1.55103H164.407V8.26978H163.768V4.99104Z"/>
<path d="M172.34 2.41103L168.188 8.26978H167.389V1.55103H168.028V7.40979L172.181 1.55103H172.979V8.26978H172.34V2.41103Z"/>
<path d="M181.072 2.41125L176.919 8.27H176.12V1.55125H176.759V7.41001L180.912 1.55125H181.711V8.27H181.072V2.41125ZM177.718 0.26125L178.144 0.100006C178.25 0.530006 178.516 0.744996 178.942 0.744996C179.368 0.744996 179.634 0.583756 179.741 0.100006L180.167 0.26125C180.007 0.90625 179.528 1.22876 178.942 1.22876C178.356 1.22876 177.877 0.90625 177.718 0.26125Z"/>
<path d="M229.201 34.9838C229.201 37.1876 227.444 38.9613 225.262 38.9613C223.079 38.9613 221.322 37.1876 221.322 34.9838C221.322 32.7801 223.079 30.9526 225.262 30.9526C227.444 30.9526 229.201 32.7801 229.201 34.9838ZM221.907 34.9838C221.907 36.8651 223.398 38.3701 225.262 38.3701C227.072 38.3701 228.616 36.8651 228.616 34.9838C228.616 33.1026 227.125 31.5976 225.262 31.5976C223.451 31.5976 221.907 33.1026 221.907 34.9838ZM225.208 32.8876C226.007 32.8876 227.072 33.0488 227.072 34.0701C227.072 34.5538 226.859 34.8763 226.326 35.0913C226.806 35.3063 227.019 35.6826 227.019 36.3813C227.019 36.5426 227.019 36.7576 227.125 36.9726H226.326C226.22 36.8113 226.22 36.5963 226.22 36.4888C226.22 35.4676 226.007 35.3601 224.995 35.3601H224.41V36.9726H223.664V32.8876H225.208ZM225.208 34.8226C226.007 34.8226 226.326 34.6076 226.326 34.1776C226.326 33.5326 225.634 33.5326 225.155 33.5326H224.463V34.8226H225.208Z"/>
</g>
<path d="M26.9931 9.72101L19.3264 12.301L25.8218 16.6548L26.9931 9.72101ZM27.0463 18.4285L25.8218 25.8997L36.2037 29.3398L33.7546 14.021L27.0463 18.4285ZM28.537 9.18351L27.419 16.2785L33.3819 12.301L32.6898 7.78601L28.537 9.18351ZM36.5232 31.1135L25.5556 27.351L24.2245 35.6823H37.2153L36.5232 31.1135ZM2.44907 17.9985L24.331 25.3085L25.4491 18.321L17.463 12.8923L2.44907 17.9985ZM0 46.5398H52.7083V49.0122H0C0 49.0122 0 46.5398 0 46.5398ZM0 42.0785H52.7083V44.551H0C0 44.551 0 42.0785 0 42.0785ZM0 37.671H52.7083V40.1435H0C0 40.1435 0 37.671 0 37.671ZM34.1806 7.35602L34.8194 11.3335L47.4907 2.84102L34.1806 7.35602ZM35.1389 12.9998L37.8542 29.8773L52.7083 34.9298V1.22852L35.1389 12.9998ZM38.2269 31.651L38.8657 35.736H50.3125L38.2269 31.651ZM0 50.9473H52.7083V53.5273H0C0 53.5273 0 50.9473 0 50.9473ZM22.6806 35.736L24.0648 26.9748L0 18.751V35.6823H22.6806V35.736ZM17.6759 11.1185L27.2593 7.94727L28.4838 0.422272H1.75694L17.6759 11.1185ZM28.9097 7.40977L32.4236 6.28102L31.4653 0.422272H30.081L28.9097 7.40977ZM33.0093 0.422272L33.9144 5.74352L49.5671 0.422272H33.0093ZM15.8125 11.871L0 1.22852V17.1923L15.8125 11.871Z" class='second-color' fill="currentColor"/>
</svg>
