<svg width="81" height="80" viewBox="0 0 81 80" fill="none" xmlns="http://www.w3.org/2000/svg">
<path d="M72.3377 39.9998C72.3377 57.857 57.8607 72.3332 40.0023 72.3332C22.144 72.3332 7.66699 57.857 7.66699 39.9998C7.66699 22.1427 22.144 7.6665 40.0023 7.6665C57.8607 7.6665 72.3377 22.1427 72.3377 39.9998Z" fill="black" fill-opacity="0.01" stroke="#2E2E43" stroke-width="2"/>
<path d="M79.0048 40C79.0048 61.539 61.5429 79 40.0024 79C18.4619 79 1 61.539 1 40C1 18.461 18.4619 1 40.0024 1C61.5429 1 79.0048 18.461 79.0048 40Z" fill="black" fill-opacity="0.01" stroke="#2E2E43" stroke-width="2"/>
<path d="M49.3931 40.0001L35.3072 49.1173L35.3072 30.8829L49.3931 40.0001Z" fill="#2E2E43"/>
</svg>
