<svg xmlns="http://www.w3.org/2000/svg" viewBox="0 0 863.27 903.5"><title>Ресурс 2</title><g id="Слой_2" data-name="Слой 2"><g id="Слой_1-2" data-name="Слой 1"><g id="_5_3" data-name="5_3"><path d="M26.63,300.12C-57.37,534.73,64,793.49,297.3,877c174.17,62.36,366.13,12.45,489-127.43A32.87,32.87,0,1,0,737.1,706C632.27,825.21,468.31,867.83,319.56,814.57,120.34,743.24,16.66,522.26,88.36,322S380.44,16.8,579.66,88.13a381.12,381.12,0,0,1,171.06,123,22.33,22.33,0,0,0,2.72,2.78l-107,.45a33.11,33.11,0,0,0-11.2,64.19,33.8,33.8,0,0,0,11.13,1.86l184-.72a32.7,32.7,0,0,0,23.24-9.73,33.64,33.64,0,0,0,9.66-23.42l0-184.72A32.73,32.73,0,0,0,830.37,29a33.13,33.13,0,0,0-32.9,33.15l-.05,102.48A445.82,445.82,0,0,0,601.84,26.18C368.63-57.32,110.5,65.56,26.63,300.12Z"/></g></g></g></svg>