<svg width="1123" height="449" viewBox="0 0 1123 449" fill="none" xmlns="http://www.w3.org/2000/svg">
<path d="M297.2 437V438.5H298.7V437H297.2ZM0.800003 437H-0.699997V438.5H0.800003V437ZM0.800003 12.2V10.7H-0.699997V12.2H0.800003ZM286.4 12.2H287.9V10.7H286.4V12.2ZM286.4 99.2V100.7H287.9V99.2H286.4ZM99.8 99.2V97.7H98.3V99.2H99.8ZM99.8 179H98.3V180.5H99.8V179ZM276.2 179H277.7V177.5H276.2V179ZM276.2 261.2V262.7H277.7V261.2H276.2ZM99.8 261.2V259.7H98.3V261.2H99.8ZM99.8 349.4H98.3V350.9H99.8V349.4ZM297.2 349.4H298.7V347.9H297.2V349.4ZM297.2 435.5H0.800003V438.5H297.2V435.5ZM2.3 437L2.3 12.2H-0.699997L-0.699997 437H2.3ZM0.800003 13.7L286.4 13.7V10.7L0.800003 10.7V13.7ZM284.9 12.2L284.9 99.2H287.9L287.9 12.2H284.9ZM286.4 97.7L99.8 97.7V100.7L286.4 100.7V97.7ZM98.3 99.2L98.3 179H101.3L101.3 99.2H98.3ZM99.8 180.5L276.2 180.5V177.5L99.8 177.5V180.5ZM274.7 179V261.2H277.7V179H274.7ZM276.2 259.7L99.8 259.7V262.7L276.2 262.7V259.7ZM98.3 261.2L98.3 349.4H101.3L101.3 261.2H98.3ZM99.8 350.9L297.2 350.9V347.9L99.8 347.9V350.9ZM295.7 349.4L295.7 437H298.7L298.7 349.4H295.7ZM662.853 221L661.675 220.071L661.67 220.078L661.664 220.085L662.853 221ZM602.253 264.8L602.727 266.223L602.734 266.221L602.741 266.218L602.253 264.8ZM467.853 276.8V275.3H466.353V276.8H467.853ZM467.853 437V438.5H469.353V437H467.853ZM365.253 437H363.753V438.5H365.253V437ZM365.253 12.2V10.7H363.753V12.2H365.253ZM641.853 43.4L640.998 44.6327L641.008 44.6392L641.017 44.6455L641.853 43.4ZM467.853 95V93.5H466.353V95H467.853ZM467.853 195.2H466.353V196.7H467.853V195.2ZM685.953 143C685.953 173.925 677.831 199.581 661.675 220.071L664.031 221.929C680.675 200.819 688.953 174.475 688.953 143H685.953ZM661.664 220.085C645.84 240.657 625.882 255.079 601.765 263.382L602.741 266.218C627.424 257.721 647.866 242.943 664.042 221.915L661.664 220.085ZM601.779 263.377C577.964 271.315 550.33 275.3 518.853 275.3V278.3C550.576 278.3 578.542 274.285 602.727 266.223L601.779 263.377ZM518.853 275.3L467.853 275.3V278.3L518.853 278.3V275.3ZM466.353 276.8L466.353 437H469.353V276.8H466.353ZM467.853 435.5H365.253V438.5H467.853V435.5ZM366.753 437L366.753 12.2H363.753L363.753 437H366.753ZM365.253 13.7L521.253 13.7V10.7L365.253 10.7V13.7ZM521.253 13.7C571.461 13.7 611.329 24.0616 640.998 44.6327L642.708 42.1673C612.378 21.1384 571.846 10.7 521.253 10.7V13.7ZM641.017 44.6455C670.895 64.6949 685.953 97.355 685.953 143H688.953C688.953 96.645 673.611 62.9051 642.689 42.1544L641.017 44.6455ZM586.353 143.6C586.353 126.971 580.16 114.322 567.692 105.907C555.33 97.562 536.975 93.5 512.853 93.5V96.5C536.731 96.5 554.377 100.538 566.014 108.393C577.546 116.178 583.353 127.829 583.353 143.6H586.353ZM512.853 93.5H467.853V96.5H512.853V93.5ZM466.353 95V195.2H469.353V95H466.353ZM467.853 196.7L511.053 196.7V193.7L467.853 193.7V196.7ZM511.053 196.7C535.782 196.7 554.596 192.386 567.263 183.529C580.027 174.604 586.353 161.207 586.353 143.6H583.353C583.353 160.393 577.379 172.796 565.544 181.071C553.61 189.414 535.524 193.7 511.053 193.7V196.7ZM1122.84 378.2L1123.98 379.18L1124.92 378.092L1123.87 377.108L1122.84 378.2ZM794.042 386L792.997 387.076L793.002 387.081L794.042 386ZM794.642 62.6L795.667 63.6952L795.667 63.6949L794.642 62.6ZM1049.04 17.6L1048.5 18.998L1048.51 19.0025L1048.52 19.0068L1049.04 17.6ZM1118.64 63.2L1119.7 64.2607L1120.7 63.2669L1119.77 62.2106L1118.64 63.2ZM1049.04 132.8L1047.82 133.675L1048.85 135.109L1050.1 133.861L1049.04 132.8ZM1011.84 104L1011.23 105.369L1011.25 105.379L1011.27 105.388L1011.84 104ZM875.042 131L873.947 129.975L873.946 129.976L875.042 131ZM874.442 318.2L873.337 319.214L873.346 319.223L874.442 318.2ZM1051.44 311L1052.47 309.908L1051.21 308.726L1050.22 310.133L1051.44 311ZM1121.71 377.22C1081.63 423.646 1027.07 446.9 957.842 446.9V449.9C1027.82 449.9 1083.26 426.354 1123.98 379.18L1121.71 377.22ZM957.842 446.9C892.188 446.9 837.974 426.222 795.083 384.919L793.002 387.081C836.51 428.978 891.497 449.9 957.842 449.9V446.9ZM795.088 384.924C752.208 343.235 730.742 289.638 730.742 224H727.742C727.742 290.362 749.477 344.765 792.997 387.076L795.088 384.924ZM730.742 224C730.742 157.561 752.408 104.176 795.667 63.6952L793.617 61.5047C749.677 102.624 727.742 156.839 727.742 224H730.742ZM795.667 63.6949C839.362 22.7809 893.984 2.29997 959.642 2.29997V-0.700027C893.301 -0.700027 837.922 20.0191 793.617 61.5051L795.667 63.6949ZM959.642 2.29997C990.256 2.29997 1019.87 7.86516 1048.5 18.998L1049.59 16.202C1020.61 4.93478 990.629 -0.700027 959.642 -0.700027V2.29997ZM1048.52 19.0068C1077.53 29.737 1100.51 44.81 1117.51 64.1894L1119.77 62.2106C1102.38 42.3899 1078.95 27.0629 1049.56 16.1931L1048.52 19.0068ZM1117.58 62.1393L1047.98 131.739L1050.1 133.861L1119.7 64.2607L1117.58 62.1393ZM1050.26 131.925C1040.88 118.88 1028.25 109.111 1012.41 102.612L1011.27 105.388C1026.63 111.689 1038.8 121.12 1047.82 133.675L1050.26 131.925ZM1012.45 102.631C997.056 95.7417 980.646 92.3 963.242 92.3V95.3C980.238 95.3 996.229 98.6583 1011.23 105.369L1012.45 102.631ZM963.242 92.3C927.25 92.3 897.445 104.856 873.947 129.975L876.138 132.025C899.039 107.544 928.035 95.3 963.242 95.3V92.3ZM873.946 129.976C850.853 154.689 839.342 186.071 839.342 224L842.342 224C842.342 186.729 853.631 156.111 876.138 132.024L873.946 129.976ZM839.342 224C839.342 262.712 850.643 294.494 873.337 319.214L875.547 317.186C853.441 293.106 842.342 262.088 842.342 224L839.342 224ZM873.346 319.223C896.055 343.555 925.466 355.7 961.442 355.7V352.7C926.219 352.7 897.629 340.845 875.539 317.177L873.346 319.223ZM961.442 355.7C1001.46 355.7 1031.95 341.117 1052.67 311.867L1050.22 310.133C1030.14 338.483 1000.62 352.7 961.442 352.7V355.7ZM1050.41 312.092L1121.81 379.292L1123.87 377.108L1052.47 309.908L1050.41 312.092Z" fill="#34D9CA"/>
</svg>
